<svg viewBox="0,0,174,310" overflow="hidden"><defs><filter id="fx0" x="-10%" y="-10%" width="120%" height="120%" filterUnits="userSpaceOnUse" primitiveUnits="userSpaceOnUse"><feComponentTransfer color-interpolation-filters="sRGB"><feFuncR type="discrete" tableValues="0 0"/><feFuncG type="discrete" tableValues="0 0"/><feFuncB type="discrete" tableValues="0 0"/><feFuncA type="linear" slope="0.811765" intercept="0"/></feComponentTransfer><feGaussianBlur stdDeviation="5.37669 5.33333"/></filter><filter id="fx1" x="-10%" y="-10%" width="120%" height="120%" filterUnits="userSpaceOnUse" primitiveUnits="userSpaceOnUse"><feComponentTransfer color-interpolation-filters="sRGB"><feFuncR type="discrete" tableValues="0 0"/><feFuncG type="discrete" tableValues="0 0"/><feFuncB type="discrete" tableValues="0 0"/><feFuncA type="linear" slope="0.811765" intercept="0"/></feComponentTransfer><feGaussianBlur stdDeviation="5.33333 5.33333"/></filter><filter id="fx2" x="-10%" y="-10%" width="120%" height="120%" filterUnits="userSpaceOnUse" primitiveUnits="userSpaceOnUse"><feComponentTransfer color-interpolation-filters="sRGB"><feFuncR type="discrete" tableValues="0 0"/><feFuncG type="discrete" tableValues="0 0"/><feFuncB type="discrete" tableValues="0 0"/><feFuncA type="linear" slope="0.811765" intercept="0"/></feComponentTransfer><feGaussianBlur stdDeviation="5.39608 5.39759"/></filter><filter id="fx3" x="-10%" y="-10%" width="120%" height="120%" filterUnits="userSpaceOnUse" primitiveUnits="userSpaceOnUse"><feComponentTransfer color-interpolation-filters="sRGB"><feFuncR type="discrete" tableValues="0 0"/><feFuncG type="discrete" tableValues="0 0"/><feFuncB type="discrete" tableValues="0 0"/><feFuncA type="linear" slope="0.811765" intercept="0"/></feComponentTransfer><feGaussianBlur stdDeviation="5.33333 5.37405"/></filter><clipPath id="clip4"><rect x="0" y="0" width="62" height="89"/></clipPath><radialGradient cx="542741" cy="-184.562" r="1197010" fx="542740" fy="-184.557" gradientUnits="userSpaceOnUse" spreadMethod="pad" id="fill5" gradientTransform="matrix(0.000104987 0 0 0.000104987 618 240)"><stop offset="0" stop-color="#05D5FF"/><stop offset="0.33" stop-color="#05D5FF"/><stop offset="0.65" stop-color="#0070C0"/><stop offset="0.97" stop-color="#9944EE"/><stop offset="1" stop-color="#9944EE"/></radialGradient><radialGradient cx="646925" cy="1180484" r="1347039" fx="646925" fy="1180484" gradientUnits="userSpaceOnUse" spreadMethod="pad" id="fill6" gradientTransform="scale(0.000104987 0.000104987)"><stop offset="0" stop-color="#9C88F0"/><stop offset="0.28" stop-color="#9C88F0"/><stop offset="0.54" stop-color="#D17EF2"/><stop offset="0.97203" stop-color="#B948F2"/><stop offset="1" stop-color="#B948F2"/></radialGradient><radialGradient cx="180781" cy="160859" r="242842" gradientUnits="userSpaceOnUse" spreadMethod="pad" id="fill7" gradientTransform="scale(0.000104987 0.000104987)"><stop offset="0" stop-color="#00B0F0"/><stop offset="0.41" stop-color="#00B0F0"/><stop offset="1" stop-color="#150DB3"/></radialGradient><clipPath id="clip8"><rect x="0" y="0" width="48" height="66"/></clipPath><linearGradient x1="39.7909" y1="11.6521" x2="-9.82015" y2="53.2807" gradientUnits="userSpaceOnUse" spreadMethod="reflect" id="fill9"><stop offset="0" stop-color="#A129EB"/><stop offset="0.00625" stop-color="#A02AEB"/><stop offset="0.0125" stop-color="#A02BEB"/><stop offset="0.01875" stop-color="#A02CEB"/><stop offset="0.025" stop-color="#A02DEB"/><stop offset="0.03125" stop-color="#A02EEB"/><stop offset="0.0375" stop-color="#A030EC"/><stop offset="0.04375" stop-color="#A031EC"/><stop offset="0.05" stop-color="#A032EC"/><stop offset="0.05625" stop-color="#A033EC"/><stop offset="0.0625" stop-color="#A034EC"/><stop offset="0.06875" stop-color="#9F35EC"/><stop offset="0.075" stop-color="#9F36ED"/><stop offset="0.08125" stop-color="#9F37ED"/><stop offset="0.0875" stop-color="#9F39ED"/><stop offset="0.09375" stop-color="#9F3AED"/><stop offset="0.1" stop-color="#9E3BED"/><stop offset="0.10625" stop-color="#9E3CED"/><stop offset="0.1125" stop-color="#9E3DEE"/><stop offset="0.11875" stop-color="#9E3EEE"/><stop offset="0.125" stop-color="#9D3FEE"/><stop offset="0.13125" stop-color="#9D40EE"/><stop offset="0.1375" stop-color="#9D41EE"/><stop offset="0.14375" stop-color="#9C42EE"/><stop offset="0.15" stop-color="#9C43EE"/><stop offset="0.15625" stop-color="#9C44EF"/><stop offset="0.1625" stop-color="#9B45EF"/><stop offset="0.16875" stop-color="#9B46EF"/><stop offset="0.175" stop-color="#9A47EF"/><stop offset="0.18125" stop-color="#9A48EF"/><stop offset="0.1875" stop-color="#9A49EF"/><stop offset="0.19375" stop-color="#994AEF"/><stop offset="0.2" stop-color="#994BF0"/><stop offset="0.20625" stop-color="#984CF0"/><stop offset="0.2125" stop-color="#984DF0"/><stop offset="0.21875" stop-color="#974EF0"/><stop offset="0.225" stop-color="#974FF0"/><stop offset="0.23125" stop-color="#9650F0"/><stop offset="0.2375" stop-color="#9651F0"/><stop offset="0.24375" stop-color="#9552F1"/><stop offset="0.25" stop-color="#9553F1"/><stop offset="0.25625" stop-color="#9454F1"/><stop offset="0.2625" stop-color="#9355F1"/><stop offset="0.26875" stop-color="#9356F1"/><stop offset="0.275" stop-color="#9257F1"/><stop offset="0.28125" stop-color="#9258F1"/><stop offset="0.2875" stop-color="#9158F2"/><stop offset="0.29375" stop-color="#9059F2"/><stop offset="0.3" stop-color="#905AF2"/><stop offset="0.30625" stop-color="#8F5BF2"/><stop offset="0.3125" stop-color="#8E5CF2"/><stop offset="0.31875" stop-color="#8E5DF2"/><stop offset="0.325" stop-color="#8D5EF2"/><stop offset="0.33125" stop-color="#8C5FF2"/><stop offset="0.3375" stop-color="#8B5FF3"/><stop offset="0.34375" stop-color="#8B60F3"/><stop offset="0.35" stop-color="#8A61F3"/><stop offset="0.35625" stop-color="#8962F3"/><stop offset="0.3625" stop-color="#8863F3"/><stop offset="0.36875" stop-color="#8863F3"/><stop offset="0.375" stop-color="#8764F3"/><stop offset="0.38125" stop-color="#8665F3"/><stop offset="0.3875" stop-color="#8566F4"/><stop offset="0.39375" stop-color="#8467F4"/><stop offset="0.4" stop-color="#8467F4"/><stop offset="0.40625" stop-color="#8368F4"/><stop offset="0.4125" stop-color="#8269F4"/><stop offset="0.41875" stop-color="#816AF4"/><stop offset="0.425" stop-color="#806AF4"/><stop offset="0.43125" stop-color="#7F6BF4"/><stop offset="0.4375" stop-color="#7E6CF4"/><stop offset="0.44375" stop-color="#7D6DF5"/><stop offset="0.45" stop-color="#7C6DF5"/><stop offset="0.45625" stop-color="#7C6EF5"/><stop offset="0.4625" stop-color="#7B6FF5"/><stop offset="0.46875" stop-color="#7A6FF5"/><stop offset="0.475" stop-color="#7970F5"/><stop offset="0.48125" stop-color="#7871F5"/><stop offset="0.4875" stop-color="#7771F5"/><stop offset="0.49375" stop-color="#7672F5"/><stop offset="0.5" stop-color="#7573F5"/><stop offset="0.50625" stop-color="#7473F6"/><stop offset="0.5125" stop-color="#7374F6"/><stop offset="0.51875" stop-color="#7175F6"/><stop offset="0.525" stop-color="#7075F6"/><stop offset="0.53125" stop-color="#6F76F6"/><stop offset="0.5375" stop-color="#6E76F6"/><stop offset="0.54375" stop-color="#6D77F6"/><stop offset="0.55" stop-color="#6C78F6"/><stop offset="0.55625" stop-color="#6B78F6"/><stop offset="0.5625" stop-color="#6A79F6"/><stop offset="0.56875" stop-color="#6979F6"/><stop offset="0.575" stop-color="#677AF6"/><stop offset="0.58125" stop-color="#667BF7"/><stop offset="0.5875" stop-color="#657BF7"/><stop offset="0.59375" stop-color="#647CF7"/><stop offset="0.6" stop-color="#637CF7"/><stop offset="0.60625" stop-color="#627DF7"/><stop offset="0.6125" stop-color="#607DF7"/><stop offset="0.61875" stop-color="#5F7EF7"/><stop offset="0.625" stop-color="#5E7EF7"/><stop offset="0.63125" stop-color="#5D7FF7"/><stop offset="0.6375" stop-color="#5B7FF7"/><stop offset="0.64375" stop-color="#5A80F7"/><stop offset="0.65" stop-color="#5980F7"/><stop offset="0.65625" stop-color="#5781F7"/><stop offset="0.6625" stop-color="#5681F8"/><stop offset="0.66875" stop-color="#5582F8"/><stop offset="0.675" stop-color="#5382F8"/><stop offset="0.68125" stop-color="#5283F8"/><stop offset="0.6875" stop-color="#5183F8"/><stop offset="0.69375" stop-color="#4F83F8"/><stop offset="0.7" stop-color="#4E84F8"/><stop offset="0.70625" stop-color="#4D84F8"/><stop offset="0.7125" stop-color="#4B85F8"/><stop offset="0.71875" stop-color="#4A85F8"/><stop offset="0.725" stop-color="#4885F8"/><stop offset="0.73125" stop-color="#4786F8"/><stop offset="0.7375" stop-color="#4686F8"/><stop offset="0.74375" stop-color="#4487F8"/><stop offset="0.75" stop-color="#4387F8"/><stop offset="0.75625" stop-color="#4187F8"/><stop offset="0.7625" stop-color="#4088F8"/><stop offset="0.76875" stop-color="#3E88F9"/><stop offset="0.775" stop-color="#3D88F9"/><stop offset="0.78125" stop-color="#3B89F9"/><stop offset="0.7875" stop-color="#3A89F9"/><stop offset="0.79375" stop-color="#3889F9"/><stop offset="0.8" stop-color="#378AF9"/><stop offset="0.80625" stop-color="#358AF9"/><stop offset="0.8125" stop-color="#338AF9"/><stop offset="0.81875" stop-color="#328AF9"/><stop offset="0.825" stop-color="#308BF9"/><stop offset="0.83125" stop-color="#2F8BF9"/><stop offset="0.8375" stop-color="#2D8BF9"/><stop offset="0.84375" stop-color="#2B8BF9"/><stop offset="0.85" stop-color="#2A8CF9"/><stop offset="0.85625" stop-color="#288CF9"/><stop offset="0.8625" stop-color="#268CF9"/><stop offset="0.86875" stop-color="#258CF9"/><stop offset="0.875" stop-color="#238CF9"/><stop offset="0.88125" stop-color="#218DF9"/><stop offset="0.8875" stop-color="#208DF9"/><stop offset="0.89375" stop-color="#1E8DF9"/><stop offset="0.9" stop-color="#1C8DF9"/><stop offset="0.90625" stop-color="#1B8DF9"/><stop offset="0.9125" stop-color="#198DF9"/><stop offset="0.91875" stop-color="#178EF9"/><stop offset="0.925" stop-color="#158EF9"/><stop offset="0.93125" stop-color="#148EF9"/><stop offset="0.9375" stop-color="#128EF9"/><stop offset="0.94375" stop-color="#108EF9"/><stop offset="0.95" stop-color="#0E8EF9"/><stop offset="0.95625" stop-color="#0C8EF9"/><stop offset="0.9625" stop-color="#0B8EF9"/><stop offset="0.96875" stop-color="#098EF9"/><stop offset="0.975" stop-color="#078EF9"/><stop offset="0.98125" stop-color="#058EF9"/><stop offset="0.9875" stop-color="#038EF9"/><stop offset="0.99375" stop-color="#018EF9"/><stop offset="1" stop-color="#008FFA"/></linearGradient></defs><g transform="translate(-534 -211)"><g filter="url(#fx0)" transform="matrix(1.98387 0 0 2 585 211)"><g clip-path="url(#clip4)" transform="translate(5.68434e-14 0)"><path d="M25.2513 19.7177C27.4774 18.4108 29.7757 17.1206 32.329 16.5523 34.2878 16.4399 36.3173 16.4095 38.1824 17.0964 39.3714 17.7376 40.2609 18.8059 41.1904 19.7572 41.7158 20.2481 41.6743 21.0216 41.868 21.6659 42.2919 23.0397 41.9248 24.4681 41.8295 25.8616 41.7604 27.0895 41.4301 28.2839 41.0906 29.4617 40.4115 31.4311 38.972 33.0055 37.6815 34.6026 36.4786 36.0797 34.4061 35.9323 32.7131 36.2545 31.4917 36.4232 30.5577 37.2984 29.7435 38.1419 28.284 39.736 26.8045 41.3134 25.2959 42.8619 23.7042 44.532 22.3938 46.4391 21.1694 48.3812 23.0129 49.0559 25.0162 48.8751 26.9351 48.7155 29.003 48.5226 30.9986 47.8509 33.0895 47.8326 33.7071 47.7354 34.5275 47.787 34.8747 47.1746 35.4032 45.4285 35.0329 43.5776 35.311 41.8027 35.967 40.2678 37.9642 39.4153 39.542 40.0582 41.4916 40.6979 43.5302 41.3042 45.1879 42.5473 45.5827 43.3329 45.2217 44.2706 44.7316 44.924 43.564 46.7658 41.4424 47.626 39.6357 48.6897 38.6186 50.4221 37.9811 52.352 37.3097 54.2379 38.1916 54.9385 39.3023 55.1513 40.3025 55.5919 40.728 56.2362 40.7403 57.104 40.8309 57.8532 40.2486 59.0597 39.562 60.239 38.6586 61.245 38.0917 62.0322 37.2759 62.6841 36.9149 63.602 37.1669 63.877 37.5125 64.0761 37.8997 64.0639 39.3761 64.2751 40.8125 63.7448 42.2858 63.7995 43.7822 64.7751 44.4428 66.5303 44.8591 68.1746 40.9661 70.2352 36.4156 70.3416 32.3275 71.8536 30.8096 72.1712 29.2595 72.3612 27.714 72.4904 28.3285 71.9752 29.006 71.4631 29.2257 70.6562 28.728 70.5315 28.2317 70.4115 27.734 70.2945 28.1227 69.9784 28.5451 69.6988 28.9016 69.3477 28.9492 68.7186 28.4069 68.2505 28.138 67.7339 28.2609 67.2947 28.5144 66.8236 28.3239 66.3692 27.7586 65 26.7338 63.6962 26.8383 62.1492 27.4528 60.6615 28.6004 59.4503 29.6144 58.2209 30.2212 57.3441 31.4902 57.1389 31.9112 56.1238 32.1462 56.1633 32.3828 56.2013 32.6194 56.2362 33.4506 54.8975 33.7731 53.3581 33.9975 51.8247 33.4014 51.7503 32.7669 51.5391 32.1984 51.8111 31.4149 52.1469 30.7067 52.653 29.8525 52.817 28.6711 53.1027 27.5865 53.6726 26.4143 53.9872 25.1392 54.3139 23.8763 54.7196 22.5797 54.9506 21.1448 54.785 19.7421 54.2227 18.6237 53.317 16.9906 51.4235 17.4146 48.4618 19.0231 46.6853 19.9756 45.7842 21.1048 45.0988 22.1096 44.26 23.2449 43.295 23.9562 41.9516 25.0639 40.9639 26.0609 40.1037 26.763 38.9716 27.4958 37.8987 27.8477 37.4489 27.7463 36.8593 27.7954 36.3274 27.0902 36.3289 26.4481 36.0432 25.7859 35.8548 24.8488 35.7576 23.9009 35.9946 22.9668 35.788 21.6579 35.5326 20.1969 35.6618 19.0954 34.7728 17.98 34.241 17.5176 33.0982 17.0352 32.0633 16.6173 31.2078 16.6634 30.2184 16.6265 29.2945 16.6019 25.8951 16.7648 22.3878 18.2166 19.2467 19.3611 20.2299 20.5994 21.1629 21.3691 22.4865 22.7717 21.7191 24.0023 20.6994 25.2513 19.7177M30.9802 20.28C29.7388 20.3514 28.9522 21.3331 28.178 22.1598 26.4681 23.8086 25.299 25.889 24.2404 27.9815 23.5045 29.6577 23.8948 31.8171 25.3481 32.9964 26.3882 33.9021 27.8584 33.8793 29.1474 34.0996 30.02 32.7623 30.3349 31.2078 30.7635 29.7033 30.9295 29.0529 31.8343 29.0103 32.3275 29.296 33.151 29.7626 33.8069 30.4616 34.5459 31.0421 36.517 28.9723 37.8382 25.9452 37.0347 23.1004 36.9564 21.83 35.7089 21.1523 34.8148 20.4472 33.5857 20.0551 32.2507 20.1615 30.9802 20.28Z" fill="#FF0000" fill-rule="evenodd"/></g></g><path d="M635.095 246.435C639.512 243.822 644.071 241.241 649.137 240.105 653.023 239.88 657.049 239.819 660.749 241.193 663.108 242.475 664.873 244.612 666.716 246.514 667.759 247.496 667.677 249.043 668.061 250.332 668.902 253.079 668.173 255.936 667.984 258.723 667.847 261.179 667.192 263.568 666.518 265.923 665.171 269.862 662.315 273.011 659.755 276.205 657.369 279.159 653.257 278.865 649.899 279.509 647.476 279.846 645.623 281.597 644.007 283.284 641.112 286.472 638.177 289.627 635.184 292.724 632.026 296.064 629.426 299.878 626.997 303.762 630.655 305.112 634.629 304.75 638.436 304.431 642.538 304.045 646.497 302.702 650.645 302.665 651.87 302.471 653.498 302.574 654.187 301.349 655.235 297.857 654.501 294.155 655.052 290.605 656.354 287.536 660.316 285.831 663.446 287.116 667.314 288.396 671.358 289.608 674.647 292.095 675.43 293.666 674.714 295.541 673.742 296.848 671.425 300.532 667.216 302.252 663.632 304.379 661.614 307.844 660.35 311.704 659.018 315.476 660.767 316.877 662.971 317.302 664.955 318.184 665.799 319.472 665.823 321.208 666.003 322.706 664.848 325.119 663.486 327.478 661.694 329.49 660.569 331.064 658.951 332.368 658.234 334.204 658.734 334.754 659.42 335.152 660.188 335.128 663.117 335.55 665.967 334.49 668.89 334.599 671.858 336.55 673.169 340.061 673.995 343.349 666.271 347.47 657.244 347.683 649.134 350.707 646.122 351.342 643.047 351.722 639.981 351.981 641.2 350.95 642.544 349.926 642.98 348.312 641.993 348.063 641.008 347.823 640.021 347.589 640.792 346.957 641.63 346.398 642.337 345.695 642.431 344.437 641.356 343.501 640.822 342.468 641.066 341.589 641.569 340.647 641.191 339.738 640.069 337 638.036 334.392 638.244 331.298 639.463 328.323 641.74 325.901 643.751 323.442 644.955 321.688 647.473 321.278 648.308 319.248 648.774 319.327 649.243 319.403 649.713 319.472 651.362 316.795 652.002 313.716 652.447 310.649 651.264 310.501 650.005 310.078 648.878 310.622 647.323 311.294 645.918 312.306 644.224 312.634 641.88 313.205 639.728 314.345 637.402 314.974 634.873 315.628 632.367 316.439 629.795 316.901 626.948 316.57 624.166 315.445 621.947 313.634 618.707 309.847 619.548 303.924 622.739 300.371 624.629 298.568 626.869 297.198 628.863 295.52 631.115 293.59 632.526 290.903 634.724 288.928 636.701 287.207 638.094 284.943 639.548 282.797 640.246 281.898 640.045 280.719 640.143 279.655 638.744 279.658 637.47 279.086 636.156 278.71 634.297 278.515 632.416 278.989 630.563 278.576 627.967 278.065 625.068 278.324 622.883 276.546 620.67 275.482 619.753 273.196 618.796 271.127 617.967 269.416 618.058 267.437 617.985 265.589 617.936 258.79 618.259 251.775 621.139 245.493 623.41 247.46 625.866 249.326 627.393 251.973 630.176 250.438 632.617 248.399 635.095 246.435M646.461 247.56C643.998 247.703 642.438 249.666 640.901 251.32 637.509 254.617 635.19 258.778 633.09 262.963 631.63 266.315 632.404 270.634 635.287 272.993 637.351 274.804 640.268 274.759 642.825 275.199 644.556 272.525 645.181 269.416 646.031 266.407 646.36 265.106 648.155 265.021 649.134 265.592 650.767 266.525 652.069 267.923 653.535 269.084 657.445 264.945 660.066 258.89 658.472 253.201 658.317 250.66 655.842 249.305 654.068 247.894 651.63 247.11 648.981 247.323 646.461 247.56Z" fill="url(#fill5)" fill-rule="evenodd"/><g filter="url(#fx1)" transform="matrix(2 0 0 2 573 331)"><g><path d="M14.9292 61.8676C14.6172 61.7341 14.3498 61.4228 14.3498 61.1114 14.3498 60.4441 5.65919 56.6187 3.1189 56.1738 2.18297 55.9959 1.42533 55.729 1.42533 55.5511 1.42533 55.3732 2.04927 54.5724 2.8069 53.8163 5.1244 51.4587 8.68977 52.1704 12.2105 55.6845 13.1019 56.5742 13.9487 57.2859 14.0824 57.2859 14.2161 57.2859 13.8596 56.2183 13.3247 54.9728 12.7454 53.6828 12.2105 52.4373 12.1215 52.1704 11.9878 51.7701 11.4975 50.5691 9.22456 45.4091L8.77892 44.4305 6.99621 45.3201C5.34725 46.1208 5.16895 46.1653 4.67871 45.4091 4.36677 45.0088 4.09937 44.2081 4.09937 43.6743 4.09937 43.1405 3.65368 41.3167 3.16344 39.6709 2.62866 37.9805 2.09382 36.0233 2.00472 35.2671 1.87102 34.5554 1.51448 33.1319 1.20249 32.1533 0.266608 29.3954-0.312781 26.593 0.0883102 26.593 1.38078 26.593 3.83198 28.1944 4.63416 29.5289 5.1244 30.3741 5.61464 30.9968 5.70379 30.9523 5.79289 30.8634 5.88204 28.3723 5.92658 25.4365 5.97118 20.1431 6.01573 20.0541 7.2636 18.6752 8.82347 17.0293 9.62565 17.2073 10.6953 19.4314 11.1855 20.4545 11.8095 21.0772 12.478 21.1662 13.3693 21.2996 13.4585 21.1217 13.4585 19.3869 13.4585 17.5186 13.3693 17.3852 11.141 16.0507 7.53105 13.9156 6.63967 13.7821 5.48094 15.4279 4.23307 17.1183 3.34174 17.1628 2.71775 15.6059 2.45036 14.9386 2.09382 14.2714 1.82642 14.138 1.11334 13.6931 1.24709 9.067 2.04927 7.59907 2.6732 6.35357 2.9406 6.22008 4.18847 6.39804 5.2581 6.53148 5.97118 6.35357 6.77337 5.64184 7.66475 4.88565 7.7093 4.75215 7.04081 4.97458 6.19403 5.24146 6.19403 5.24146 6.86251 4.48527 7.2636 4.04048 7.5756 3.59563 7.53105 3.46219 7.53105 3.32875 7.7093 2.83944 8.02124 2.35013 8.28868 1.86082 8.55608 1.6384 8.55608 1.81636 8.55608 2.03873 8.77892 2.03873 9.04632 1.86082 9.40286 1.68292 9.35826 1.46049 8.95717 1.19361 8.60063 0.971187 9.09087 0.926671 10.1159 1.10463 11.8095 1.37152 11.8541 1.32705 11.2301 0.526343 10.7399-0.140871 10.7399-0.185387 11.2301 0.259458 11.5866 0.526343 12.2105 0.793229 12.6562 0.793229 13.815 0.793229 16.7119 4.70769 18.1826 8.22182 18.9848 10.2235 19.5196 12.3587 19.6978 14.5828 19.9207 17.83 19.9652 17.9189 21.0349 17.7855 22.8621 17.6076 24.2882 16.2731 25.7144 13.3818 26.472 11.8693 27.6308 10.0456 28.3439 9.28936 29.4135 8.17731 29.77 8.04386 30.7059 8.39973 33.1125 9.28936 33.9147 10.268 33.9593 12.2252 33.9593 14.8497 31.9092 17.0738 27.6754 19.0311 24.9122 20.2766 24.1991 20.4545 22.1936 20.1876L19.8315 19.9207 19.3413 21.5221C18.8511 23.1679 19.0294 24.3689 19.787 24.3689 20.0544 24.3689 20.0098 24.0575 19.6978 23.6127 19.3859 23.1679 20.0544 23.7462 21.1686 24.9027 24.7785 28.6837 27.1851 36.3347 25.9818 40.0267 25.447 41.6725 23.4861 43.8077 22.3719 43.9412 19.3859 44.3415 17.9152 43.8967 15.3303 41.7615 13.8596 40.5605 12.2105 38.7812 11.6312 37.8471 10.7844 36.5126 10.5616 36.3347 10.4279 36.9574 10.205 38.114 12.4334 43.9412 13.1465 43.9412 13.3247 43.9412 13.4585 44.2525 13.4585 44.5639 13.4585 44.9198 14.0378 46.0763 14.7063 47.1439 15.4194 48.2115 16.7564 50.2132 17.6478 51.5921 18.5837 53.0156 19.9207 54.7949 20.6338 55.5511 22.2382 57.2859 22.2382 58.4424 20.6783 60.2217 19.7424 61.2893 18.9848 61.6896 17.4695 61.8676 16.3553 62.001 15.1966 62.001 14.9292 61.8676ZM5.16895 40.2047C5.3918 38.6478 5.2581 37.6247 4.76786 36.5571 4.36677 35.7119 3.96568 35.0447 3.83198 35.0447 3.60914 35.0447 3.96568 38.8257 4.36677 40.8274 4.41132 41.1832 4.50047 41.7615 4.50047 42.1174 4.58961 43.3184 4.90156 42.3843 5.16895 40.2047ZM20.9012 39.2261C21.2131 38.3809 19.4304 32.5537 18.762 32.1089 18.5391 31.9754 18.0043 32.1089 17.6478 32.4202 17.2912 32.7316 15.9988 32.9985 14.84 32.9985 13.1465 33.043 12.7454 33.1764 12.8791 33.7547 13.3247 35.445 18.4945 39.9377 20.0098 39.9377 20.3218 39.9377 20.7229 39.6264 20.9012 39.2261ZM12.7454 28.6837C13.503 28.1054 13.503 28.0165 12.3888 26.8155 11.7649 26.1482 11.141 25.6589 11.0518 25.7479 10.7844 26.0593 11.3192 29.262 11.6312 29.262 11.8095 29.262 12.2997 28.9951 12.7454 28.6837ZM13.4585 14.8942C13.4585 13.2928 12.2105 9.42281 11.3192 8.35527 10.6507 7.51009 10.3833 7.46563 9.35826 7.95494 8.68977 8.22182 8.06584 8.75559 7.93214 9.067 7.62015 9.82319 8.06584 11.0242 8.60063 11.0242 8.82347 11.0242 9.00172 11.2911 9.00172 11.6025 9.00172 12.2252 12.478 15.9172 13.1019 15.9172 13.2802 15.9172 13.4585 15.4725 13.4585 14.8942Z" fill="#FF0000" fill-rule="evenodd" transform="matrix(1 0 0 -1 16.5 78.5)"/></g></g><path d="M29.8584 123.735C29.2344 123.468 28.6996 122.846 28.6996 122.223 28.6996 120.888 11.3184 113.237 6.23779 112.348 4.36593 111.992 2.85066 111.458 2.85066 111.102 2.85066 110.746 4.09854 109.145 5.6138 107.633 10.2488 102.917 17.3795 104.341 24.4211 111.369 26.2039 113.148 27.8974 114.572 28.1648 114.572 28.4322 114.572 27.7191 112.437 26.6494 109.946 25.4908 107.366 24.4211 104.875 24.2429 104.341 23.9755 103.54 22.995 101.138 18.4491 90.8182L17.5578 88.861 13.9924 90.6402C10.6945 92.2417 10.3379 92.3306 9.35742 90.8182 8.73354 90.0175 8.19875 88.4161 8.19875 87.3486 8.19875 86.2809 7.30737 82.6335 6.32689 79.3417 5.25731 75.961 4.18763 72.0467 4.00944 70.5342 3.74205 69.1108 3.02896 66.2639 2.40497 64.3067 0.533215 58.7909-0.625561 53.1861 0.17662 53.1861 2.76157 53.1861 7.66396 56.3888 9.26832 59.0578 10.2488 60.7481 11.2293 61.9936 11.4076 61.9046 11.5858 61.7267 11.7641 56.7446 11.8532 50.873 11.9424 40.2862 12.0315 40.1083 14.5272 37.3504 17.6469 34.0586 19.2513 34.4145 21.3906 38.8628 22.371 40.9089 23.6189 42.1544 24.956 42.3324 26.7386 42.5993 26.9169 42.2434 26.9169 38.7737 26.9169 35.0372 26.7386 34.7703 22.2819 32.1014 15.0621 27.8311 13.2793 27.5642 10.9619 30.8559 8.46614 34.2366 6.68348 34.3255 5.4355 31.2118 4.90072 29.8773 4.18763 28.5428 3.65284 28.276 2.22667 27.3863 2.49417 18.134 4.09854 15.1981 5.34641 12.7071 5.8812 12.4402 8.37694 12.7961 10.5162 13.063 11.9424 12.7071 13.5467 11.2837 15.3295 9.7713 15.4186 9.50431 14.0816 9.94915 12.3881 10.4829 12.3881 10.4829 13.725 8.97054 14.5272 8.08095 15.1512 7.19126 15.0621 6.92438 15.0621 6.65749 15.4186 5.67888 16.0425 4.70026 16.5774 3.72165 17.1122 3.2768 17.1122 3.63272 17.1122 4.07746 17.5578 4.07746 18.0926 3.72165 18.8057 3.36583 18.7165 2.92099 17.9143 2.38722 17.2013 1.94237 18.1817 1.85334 20.2318 2.20926 23.6189 2.74303 23.7081 2.6541 22.4602 1.05269 21.4798-0.281742 21.4798-0.370773 22.4602 0.518915 23.1732 1.05269 24.4211 1.58646 25.3125 1.58646 27.6299 1.58646 33.4237 9.41538 36.3651 16.4436 37.9695 20.447 39.0392 24.7173 39.3957 29.1655 39.8414 35.66 39.9305 35.8379 42.0697 35.571 45.7242 35.2152 48.5765 32.5462 51.4288 26.7636 52.9441 23.7387 55.2616 20.0912 56.6877 18.5787 58.827 16.3546 59.54 16.0877 61.4118 16.7995 66.2251 18.5787 67.8295 20.536 67.9187 24.4504 67.9187 29.6994 63.8184 34.1476 55.3507 38.0621 49.8243 40.5531 48.3983 40.9089 44.3872 40.3752L39.6631 39.8414 38.6826 43.0441C37.7021 46.3358 38.0587 48.7378 39.574 48.7378 40.1088 48.7378 40.0197 48.115 39.3957 47.2255 38.7718 46.3358 40.1088 47.4923 42.3371 49.8054 49.557 57.3674 54.3703 72.6694 51.9636 80.0534 50.894 83.3451 46.9721 87.6155 44.7438 87.8824 38.7718 88.683 35.8304 87.7934 30.6606 83.523 27.7191 81.121 24.4211 77.5624 23.2624 75.6941 21.5689 73.0253 21.1232 72.6694 20.8558 73.9149 20.4101 76.228 24.8668 87.8824 26.293 87.8824 26.6494 87.8824 26.9169 88.5051 26.9169 89.1279 26.9169 89.8396 28.0756 92.1526 29.4127 94.2878 30.8388 96.423 33.5128 100.426 35.2956 103.184 37.1673 106.031 39.8414 109.59 41.2675 111.102 44.4764 114.572 44.4764 116.885 41.3566 120.443 39.4849 122.579 37.9695 123.379 34.939 123.735 32.7106 124.002 30.3932 124.002 29.8584 123.735ZM10.3379 80.4093C10.7836 77.2955 10.5162 75.2494 9.53572 73.1142 8.73354 71.4239 7.93136 70.0894 7.66396 70.0894 7.21827 70.0894 7.93136 77.6514 8.73354 81.6548 8.82263 82.3665 9.00093 83.523 9.00093 84.2348 9.17923 86.6369 9.80311 84.7685 10.3379 80.4093ZM41.8023 78.4521C42.4262 76.7618 38.8609 65.1073 37.5239 64.2177 37.0782 63.9508 36.0085 64.2177 35.2956 64.8404 34.5825 65.4632 31.9975 65.997 29.6801 65.997 26.293 66.0859 25.4908 66.3528 25.7582 67.5094 26.6494 70.8901 36.989 79.8755 40.0197 79.8755 40.6435 79.8755 41.4457 79.2528 41.8023 78.4521ZM25.4908 57.3674C27.006 56.2108 27.006 56.033 24.7777 53.6309 23.5298 52.2964 22.2819 51.3178 22.1036 51.4957 21.5689 52.1185 22.6384 58.524 23.2624 58.524 23.6189 58.524 24.5994 57.9901 25.4908 57.3674ZM26.9169 29.7883C26.9169 26.5856 24.4211 18.8456 22.6384 16.7105 21.3015 15.0202 20.7667 14.9313 18.7165 15.9099 17.3795 16.4436 16.1317 17.5112 15.8643 18.134 15.2403 19.6464 16.1317 22.0483 17.2013 22.0483 17.6469 22.0483 18.0034 22.5822 18.0034 23.2049 18.0034 24.4504 24.956 31.8345 26.2039 31.8345 26.5604 31.8345 26.9169 30.9449 26.9169 29.7883Z" fill="url(#fill6)" fill-rule="evenodd" transform="matrix(1 0 0 -1 606 484)"/><g filter="url(#fx2)" transform="matrix(1.97674 0 0 1.97619 544 348)"><g transform="matrix(1 0 0 1 0 2.84217e-14)"><path d="M0.255954 7.86242C-0.234157 7.27223-0.100443 7.09066 1.10251 6.6821 2.88476 6.04653 3.82039 4.50298 2.7511 3.91284 1.68175 3.27728 1.90454 2.73247 3.50853 1.96072 4.26597 1.55215 5.42439 0.961968 6.04816 0.598781 6.89472 0.0994053 7.25117 0.0994053 7.78587 0.508024 8.32052 0.91659 8.36506 0.91659 8.09773 0.508024 7.65216-0.30916 8.0532-0.21835 8.89976 0.644213 9.83539 1.55215 9.83539 4.86616 8.89976 6.18272 8.54331 6.72748 7.65216 7.49923 6.93931 7.86242 5.20166 8.77036 0.968853 8.77036 0.255954 7.86242Z" fill="#FF0000" fill-rule="evenodd" transform="matrix(1 0 0 -1.00028 16.6941 25.3012)"/></g></g><path d="M0.505955 15.542C-0.462869 14.3753-0.19855 14.0164 2.17939 13.2088 5.70243 11.9524 7.55194 8.90123 5.43822 7.73469 3.32439 6.47834 3.76479 5.4014 6.93547 3.87584 8.43273 3.06821 10.7226 1.90156 11.9557 1.18364 13.6291 0.196499 14.3337 0.196499 15.3907 1.00423 16.4475 1.81186 16.5356 1.81186 16.0071 1.00423 15.1264-0.61113 15.9191-0.431622 17.5925 1.27344 19.442 3.06821 19.442 9.61916 17.5925 12.2217 16.8879 13.2985 15.1264 14.8241 13.7172 15.542 10.2823 17.3368 1.91517 17.3368 0.505955 15.542Z" fill="url(#fill7)" fill-rule="evenodd" transform="matrix(1 0 0 -1 577 394)"/><g filter="url(#fx3)" transform="matrix(2 0 0 1.98485 534 385)"><g clip-path="url(#clip8)"><path d="M0.516461 32.4493C-0.847984 31.9621 0.648501 27.6215 2.76124 25.8055 3.59748 25.0525 3.9056 24.3438 3.9496 23.148 3.9496 22.2178 4.03764 20.8891 4.12569 20.1804 4.47781 17.5229 4.74189 7.15851 4.43376 6.89277 4.03764 6.44983 3.9496 5.29826 4.34577 5.29826 4.5658 5.29826 4.96197 4.5453 5.22605 3.65942 5.79826 1.84349 7.2507-0.0168238 8.08698-0.0168238 9.36344-0.0168238 12.2684 5.25398 12.2684 7.60146 12.2684 8.17722 12.4445 8.84163 12.6645 9.10737 13.5008 9.9932 14.5131 15.574 14.8213 20.6676 15.1734 27.0014 14.9973 28.1087 14.161 24.7425 12.8846 19.6932 10.4198 12.5179 9.36344 10.8348L8.26307 9.0631 8.52715 14.5996C8.70319 17.6558 8.92327 21.8192 9.01131 23.8566 9.2314 27.4 9.2314 27.5772 8.04299 28.8174 7.38279 29.526 6.15033 30.2347 5.27005 30.3675 3.50948 30.6776 1.44079 31.652 1.17671 32.2279 1.13266 32.4493 0.780541 32.5379 0.516461 32.4493Z" fill="#FF0000" fill-rule="evenodd" transform="matrix(1 0 0 -1.00763 16.5 49.374)"/></g></g><path d="M1.03292 64.8985C-1.69597 63.9241 1.297 55.2429 5.52248 51.6109 7.19495 50.105 7.81121 48.6877 7.8992 46.296 7.8992 44.4356 8.07529 41.7781 8.25137 40.3607 8.95562 35.0458 9.48378 14.317 8.86753 13.7855 8.07529 12.8997 7.8992 10.5965 8.69154 10.5965 9.13161 10.5965 9.92395 9.0906 10.4521 7.31884 11.5965 3.68697 14.5014-0.0336477 16.174-0.0336477 18.7269-0.0336477 24.5368 10.508 24.5368 15.2029 24.5368 16.3544 24.8889 17.6833 25.3291 18.2147 27.0016 19.9864 29.0263 31.1481 29.6425 41.3352 30.3468 54.0027 29.9946 56.2173 28.322 49.485 25.7692 39.3863 20.8395 25.0357 18.7269 21.6695L16.5261 18.1262 17.0543 29.1992C17.4064 35.3115 17.8465 43.6384 18.0226 47.7132 18.4628 54.8 18.4628 55.1544 16.086 57.6347 14.7656 59.0521 12.3007 60.4693 10.5401 60.7351 7.01897 61.3552 2.88158 63.3041 2.35342 64.4557 2.26533 64.8985 1.56108 65.0757 1.03292 64.8985Z" fill="url(#fill9)" fill-rule="evenodd" transform="matrix(1 0 0 -1 567 479)"/></g></svg>