<svg width="129.629" height="315.074" xmlns="http://www.w3.org/2000/svg" xmlns:xlink="http://www.w3.org/1999/xlink" id="svg1" xml:space="preserve" overflow="hidden"><defs id="defs1"></defs><g id="g1" transform="matrix(3.77953 0 0 3.77953 -344.155 -287.725)"><path d="M92.6012 127.974C92.6073 124.786 92.8642 104.374 93.3306 95.6612 93.8391 86.1602 96.5162 82.1516 102.109 79.0423 106.816 76.4253 112.223 77.4312 115.167 82.0654 117.096 85.0999 115.982 90.3089 112.823 91.9673 109.663 93.6257 104.593 92.3199 103.687 89.1533 102.781 85.9867 105.334 83.3537 107.736 83.9509 110.138 84.5482 110.162 86.8251 110.162 86.8251" id="path1" stroke="#9A1600" stroke-width="3.08681" stroke-linecap="round" stroke-linejoin="round" stroke-miterlimit="10" fill="#FFFFFF" fill-rule="evenodd" fill-opacity="0"/><path d="M97.5312 98.2531C97.3262 96.9736 98.2338 95.4005 99.5046 95.1695 100.878 94.9206 102.407 96.1997 102.519 97.5946 102.626 98.8995 101.362 100.203 100.059 100.283 98.9167 100.353 97.713 99.3866 97.5312 98.2531Z" id="path2" stroke="#9A1600" stroke-width="3.08681" stroke-linecap="round" stroke-linejoin="round" stroke-miterlimit="10" fill="#FFFFFF" fill-rule="evenodd" fill-opacity="0"/><path d="M118.217 95.5628C118.11 94.6339 118.96 93.2516 119.912 93.0576 121.135 92.8081 122.677 93.2482 122.997 94.4073 123.321 95.5752 122.381 97.2861 121.172 97.5819 119.781 97.7986 118.374 96.9061 118.217 95.5628Z" id="path3" stroke="#9A1600" stroke-width="3.08681" stroke-linecap="round" stroke-linejoin="round" stroke-miterlimit="10" fill="#FFFFFF" fill-rule="evenodd" fill-opacity="0"/><path d="M103.145 99.4931C103.145 99.4931 106.208 100.836 110.118 100.639 113.919 100.448 117.662 97.6754 117.662 97.6754" id="path4" stroke="#9A1600" stroke-width="3.08681" stroke-linecap="round" stroke-linejoin="round" stroke-miterlimit="10" fill="#FFFFFF" fill-rule="evenodd" fill-opacity="0"/><path d="M108.921 93.5285C108.921 93.5285 108.353 102.105 108.826 105.874 109.299 109.643 109.142 111.52 109.142 111.52" id="path5" stroke="#9A1600" stroke-width="3.08681" stroke-linecap="round" stroke-linejoin="round" stroke-miterlimit="10" fill="#FFFFFF" fill-rule="evenodd" fill-opacity="0"/><path d="M101.321 106.293C101.321 106.293 105.647 106.621 108.323 106.555 112.604 106.361 114.563 105.596 116.537 104.826" id="path6" stroke="#9A1600" stroke-width="3.08681" stroke-linecap="round" stroke-linejoin="round" stroke-miterlimit="10" fill="#FFFFFF" fill-rule="evenodd" fill-opacity="0"/><path d="M97.6209 119.075C97.6209 119.075 97.5378 115.791 99.2901 113.955 102.835 110.242 104.984 111.71 109.455 111.7 116.214 111.685 117.385 110.739 117.385 110.739" id="path7" stroke="#9A1600" stroke-width="3.08681" stroke-linecap="round" stroke-linejoin="round" stroke-miterlimit="10" fill="#FFFFFF" fill-rule="evenodd" fill-opacity="0"/><path d="M97.5481 124.223C97.5481 124.223 97.747 127.793 96.9039 130.343 95.864 133.489 93.0371 135.928 92.8216 140.39 92.4876 147.309 94.4218 151.337 98.8464 155.734" id="path8" stroke="#9A1600" stroke-width="3.08681" stroke-linecap="round" stroke-linejoin="round" stroke-miterlimit="10" fill="#FFFFFF" fill-rule="evenodd" fill-opacity="0"/><path d="M97.8518 139.882C97.8518 139.882 96.8505 143.579 98.7536 146.148 100.033 147.876 101.975 147.676 101.975 147.676" id="path9" stroke="#9A1600" stroke-width="3.08681" stroke-linecap="round" stroke-linejoin="round" stroke-miterlimit="10" fill="#FFFFFF" fill-rule="evenodd" fill-opacity="0"/><path d="M118.866 116.429C118.866 116.429 116.579 117.054 112.822 116.947 109.865 116.863 106.905 116.496 104.739 118.665 101.38 122.03 102.186 130.866 101.941 134.612 101.815 136.548 102.241 141.964 102.241 141.964" id="path10" stroke="#9A1600" stroke-width="3.08681" stroke-linecap="round" stroke-linejoin="round" stroke-miterlimit="10" fill="#FFFFFF" fill-rule="evenodd" fill-opacity="0"/><path d="M111.732 117.684C111.732 117.684 108.226 125.083 107.146 129.061 106.523 131.359 106.808 134.534 107.93 136.753 109.46 139.781 113.293 140.868 113.688 145.398 114.151 150.696 108.141 154.596 103.997 157.056" id="path11" stroke="#9A1600" stroke-width="3.08681" stroke-linecap="round" stroke-linejoin="round" stroke-miterlimit="10" fill="#FFFFFF" fill-rule="evenodd" fill-opacity="0"/><path d="M109.289 124.849C109.289 124.849 113.455 124.849 115.73 126.301 118.004 127.753 118.696 130.184 118.235 132.475 117.574 135.748 110.23 138.346 110.23 138.346" id="path12" stroke="#9A1600" stroke-width="3.08681" stroke-linecap="round" stroke-linejoin="round" stroke-miterlimit="10" fill="#FFFFFF" fill-rule="evenodd" fill-opacity="0"/><path d="M107.55 130.796C112.139 130.61 115.808 132.984 118.223 137.617 119.483 140.032 120.352 144.759 119.309 148.699 118.365 152.266 114.999 156.142 111.433 157.947" id="path13" stroke="#9A1600" stroke-width="3.08681" stroke-linecap="round" stroke-linejoin="round" stroke-miterlimit="10" fill="#FFFFFF" fill-rule="evenodd" fill-opacity="0"/><path d="M106.798 143.349C108.481 145.777 108.173 147.959 106.374 149.794" id="path14" stroke="#9A1600" stroke-width="3.08681" stroke-linecap="round" stroke-linejoin="round" stroke-miterlimit="10" fill="#FFFFFF" fill-rule="evenodd" fill-opacity="0"/><path d="M121.456 97.9758C121.456 97.9758 123.966 110.874 123.804 122.78 123.692 131.018 123.241 136.664 123.241 136.664" id="path15" stroke="#9A1600" stroke-width="3.08681" stroke-linecap="round" stroke-linejoin="round" stroke-miterlimit="10" fill="#FFFFFF" fill-rule="evenodd" fill-opacity="0"/></g></svg>