<svg viewBox="0,0,141,247" xmlns="http://www.w3.org/2000/svg" xmlns:xlink="http://www.w3.org/1999/xlink" overflow="hidden"><g transform="translate(-539 -209)"><path d="M605.991 359.987C605.991 359.987 616.958 363.905 621.07 367.759 629.135 375.315 635.188 385.505 638.02 396.118 640.569 405.669 640.903 416.459 637.487 425.746 633.9 435.498 627.322 444.512 617.682 449.987" stroke="#000000" stroke-width="9.55895" stroke-linecap="round" stroke-linejoin="round" stroke-miterlimit="10" fill="#FFFFFF" fill-rule="evenodd" fill-opacity="0"/><path d="M608.991 342.983C608.991 342.983 621.482 346.4 628.896 352.826 633.501 356.817 639.296 364.787 637.73 371.482 635.844 379.56 618.207 386.984 618.207 386.984" stroke="#000000" stroke-width="9.55895" stroke-linecap="round" stroke-linejoin="round" stroke-miterlimit="10" fill="#FFFFFF" fill-rule="evenodd" fill-opacity="0"/><path d="M620.721 299.99C620.721 299.99 612.935 287.404 630.37 286.095 648.003 284.771 650.988 296.424 650.988 296.424" stroke="#000000" stroke-width="9.55895" stroke-linecap="round" stroke-linejoin="round" stroke-miterlimit="10" fill="#FFFFFF" fill-rule="evenodd" fill-opacity="0"/><path d="M635.894 255.99C635.894 255.99 635.853 279.827 635.984 292.784 636.144 308.612 628.987 311.99 628.987 311.99" stroke="#000000" stroke-width="9.55895" stroke-linecap="round" stroke-linejoin="round" stroke-miterlimit="10" fill="#FFFFFF" fill-rule="evenodd" fill-opacity="0"/><path d="M573.096 329.986C573.096 329.986 571.163 356.831 567.017 369.342 562.32 383.5 557.604 392.236 559.363 413.281 560.553 427.483 575.987 441.986 575.987 441.986" stroke="#000000" stroke-width="9.55895" stroke-linecap="round" stroke-linejoin="round" stroke-miterlimit="10" fill="#FFFFFF" fill-rule="evenodd" fill-opacity="0"/><path d="M574.07 394.987C574.07 394.987 569.074 413.018 580.553 419.29 587.396 423.031 592.988 410.495 592.988 410.495" stroke="#000000" stroke-width="9.55895" stroke-linecap="round" stroke-linejoin="round" stroke-miterlimit="10" fill="#FFFFFF" fill-rule="evenodd" fill-opacity="0"/><path d="M555.742 335.984C555.742 335.984 557.485 350.879 551.646 364.248 545.595 378.106 543.986 394.984 543.986 394.984" stroke="#000000" stroke-width="9.55895" stroke-linecap="round" stroke-linejoin="round" stroke-miterlimit="10" fill="#FFFFFF" fill-rule="evenodd" fill-opacity="0"/><path d="M626.99 331.986C626.99 331.986 606.492 339.319 602.382 354.276 597.336 375.065 606.542 382.708 613.015 387.853 622.728 395.571 624.41 412.033 619.249 423.799 614.199 435.308 593.99 449.986 593.99 449.986" stroke="#000000" stroke-width="9.55895" stroke-linecap="round" stroke-linejoin="round" stroke-miterlimit="10" fill="#FFFFFF" fill-rule="evenodd" fill-opacity="0"/><path d="M602.607 397.988C602.607 397.988 610.224 405.335 607.336 413.527 604.448 421.72 597.99 427.988 597.99 427.988" stroke="#000000" stroke-width="9.55895" stroke-linecap="round" stroke-linejoin="round" stroke-miterlimit="10" fill="#FFFFFF" fill-rule="evenodd" fill-opacity="0"/><path d="M601.093 259.986C601.093 259.986 598.79 231.688 615.707 220.782 632.511 209.947 650.053 212.769 658.457 224.286 663.948 231.811 659.913 246.479 652.014 251.441 643.662 256.684 627.009 254.2 623.068 245.187 620.599 239.535 625.861 229.192 632.549 229.293 641.645 229.428 644.08 239.063 644.08 239.063" stroke="#000000" stroke-width="9.55895" stroke-linecap="round" stroke-linejoin="round" stroke-miterlimit="10" fill="#FFFFFF" fill-rule="evenodd" fill-opacity="0"/><path d="M614.988 270.609C614.988 270.609 620.266 271.275 635.015 270.848 646.537 270.51 657.932 270.244 654.301 268.991" stroke="#000000" stroke-width="9.55895" stroke-linecap="round" stroke-linejoin="round" stroke-miterlimit="10" fill="#FFFFFF" fill-rule="evenodd" fill-opacity="0"/><path d="M582.987 296.09C582.987 296.09 590.908 305.797 600.574 309.144 618.46 315.335 642.629 316.155 657.374 308.312 672.768 300.121 668.421 277.99 668.421 277.99" stroke="#000000" stroke-width="9.55895" stroke-linecap="round" stroke-linejoin="round" stroke-miterlimit="10" fill="#FFFFFF" fill-rule="evenodd" fill-opacity="0"/><path d="M596.155 273.249C595.177 268.316 598.53 260.84 603.51 260.059 608.679 259.251 614.737 265.543 614.979 270.764 615.186 275.31 610.424 280.576 605.878 280.967 601.753 281.319 596.961 277.305 596.155 273.249Z" stroke="#000000" stroke-width="9.55895" stroke-linecap="round" stroke-linejoin="round" stroke-miterlimit="10" fill="#FFFFFF" fill-rule="evenodd" fill-opacity="0"/><path d="M657.031 266.533C656.623 262.847 659.328 257.901 662.926 257.131 667.543 256.141 673.499 260.448 674.712 265.048 675.932 269.682 673.023 277.146 668.326 277.915 663.069 278.776 657.62 271.864 657.031 266.533Z" stroke="#000000" stroke-width="9.55895" stroke-linecap="round" stroke-linejoin="round" stroke-miterlimit="10" fill="#FFFFFF" fill-rule="evenodd" fill-opacity="0"/><path d="M648.991 351.773C648.991 351.773 637.307 334.607 624.175 331.029 613.841 328.215 602.705 327.424 594.356 334.472 584.698 342.629 584.445 360.685 584.007 373.295 583.706 381.955 587.625 393.984 587.625 393.984" stroke="#000000" stroke-width="9.55895" stroke-linecap="round" stroke-linejoin="round" stroke-miterlimit="10" fill="#FFFFFF" fill-rule="evenodd" fill-opacity="0"/></g></svg>